<?xml version="1.0" encoding="UTF-8" standalone="no"?>
<!-- Generator: Adobe Illustrator 19.0.0, SVG Export Plug-In . SVG Version: 6.00 Build 0)  -->

<svg
   xmlns:dc="http://purl.org/dc/elements/1.1/"
   xmlns:cc="http://creativecommons.org/ns#"
   xmlns:rdf="http://www.w3.org/1999/02/22-rdf-syntax-ns#"
   xmlns:svg="http://www.w3.org/2000/svg"
   xmlns="http://www.w3.org/2000/svg"
   xmlns:sodipodi="http://sodipodi.sourceforge.net/DTD/sodipodi-0.dtd"
   xmlns:inkscape="http://www.inkscape.org/namespaces/inkscape"
   version="1.1"
   id="Layer_1"
   fill="#FFF"
   x="0px"
   y="0px"
   viewBox="0 0 492 492"
   style="enable-background:new 0 0 492 492;"
   xml:space="preserve"
   sodipodi:docname="right-arrow.svg"
   inkscape:version="0.92.4 (5da689c313, 2019-01-14)"><metadata
   id="metadata3797"><rdf:RDF><cc:Work
       rdf:about=""><dc:format>image/svg+xml</dc:format><dc:type
         rdf:resource="http://purl.org/dc/dcmitype/StillImage" /><dc:title></dc:title></cc:Work></rdf:RDF></metadata><defs
   id="defs3795" /><sodipodi:namedview
   pagecolor="#ffffff"
   bordercolor="#666666"
   borderopacity="1"
   objecttolerance="10"
   gridtolerance="10"
   guidetolerance="10"
   inkscape:pageopacity="0"
   inkscape:pageshadow="2"
   inkscape:window-width="1366"
   inkscape:window-height="705"
   id="namedview3793"
   showgrid="false"
   inkscape:zoom="1.0894309"
   inkscape:cx="139.98134"
   inkscape:cy="239.91498"
   inkscape:window-x="-8"
   inkscape:window-y="-8"
   inkscape:window-maximized="1"
   inkscape:current-layer="g3758" />
<g
   id="g3760"
   style="fill:#000080">
	<g
   id="g3758"
   style="fill:#000080">
		<path
   d="M 293.39189,246.104 109.33589,62.04 c -5.068,-5.056 -7.856,-11.816 -7.856,-19.024 0,-7.212 2.788,-13.968 7.856,-19.032 l 16.128,-16.12 c 5.06,-5.072 11.824,-7.864 19.032,-7.864 7.208,0 13.964,2.792 19.028,7.864 l 219.148,219.144 c 5.084,5.08 7.868,11.868 7.848,19.084 0.02,7.248 -2.76,14.028 -7.848,19.112 l -218.944,218.932 c -5.064,5.072 -11.82,7.864 -19.032,7.864 -7.208,0 -13.964,-2.792 -19.032,-7.864 l -16.124,-16.12 c -10.491997,-10.492 -10.491997,-27.572 0,-38.06 z"
   id="path3756"
   style="fill:#999999"
   inkscape:connector-curvature="0" />
	</g>
</g>
<g
   id="g3762">
</g>
<g
   id="g3764">
</g>
<g
   id="g3766">
</g>
<g
   id="g3768">
</g>
<g
   id="g3770">
</g>
<g
   id="g3772">
</g>
<g
   id="g3774">
</g>
<g
   id="g3776">
</g>
<g
   id="g3778">
</g>
<g
   id="g3780">
</g>
<g
   id="g3782">
</g>
<g
   id="g3784">
</g>
<g
   id="g3786">
</g>
<g
   id="g3788">
</g>
<g
   id="g3790">
</g>
</svg>